<?xml version="1.0" standalone="no"?><!DOCTYPE svg PUBLIC "-//W3C//DTD SVG 1.1//EN" "http://www.w3.org/Graphics/SVG/1.1/DTD/svg11.dtd"><svg class="icon" width="200px" height="200.00px" viewBox="0 0 1024 1024" version="1.1" xmlns="http://www.w3.org/2000/svg"><path d="M648.76 241.138l-90.186-90.819c-25.795-25.976-67.614-25.976-93.407 0l-90.184 90.819c-17.097 17.214-42.163 23.647-65.355 16.774l-113.057-33.518c-42.306-12.543-84.701 19.395-84.701 63.807v489.137c0 36.734 29.57 66.511 66.049 66.511h667.906c36.475 0 66.045-29.777 66.045-66.511V288.2c0-44.412-42.391-76.35-84.701-63.807l-113.054 33.518c-23.191 6.874-48.261 0.441-65.355-16.773z" fill="#FFA820" /><path d="M111.87 713.307v64.03c0 36.734 29.57 66.511 66.049 66.511H217c-43.002-36.083-78.855-80.406-105.13-130.541zM911.87 288.2c0-44.412-42.391-76.35-84.701-63.807l-10.64 3.155c44.992 50.723 78.197 112.134 95.341 179.941V288.2zM911.87 777.338V619.483c-22.52 89.068-72.761 167.095-141.01 224.366h74.965c36.474 0 66.045-29.777 66.045-66.511zM111.87 288.2v25.464a432.178 432.178 0 0 1 64.793-92.008c-34.746 0.61-64.793 29.155-64.793 66.544z" fill="#FEAC33" /><path d="M911.87 619.483V407.489c-17.144-67.807-50.349-129.218-95.341-179.941l-62.82 18.625c58.4 65.7 93.874 152.231 93.874 247.049 0 161.755-103.239 299.392-247.419 350.627H770.86c68.249-57.271 118.49-135.297 141.01-224.366zM213.342 229.366l-16.772-4.972c-6.69-1.983-13.382-2.852-19.908-2.737a432.178 432.178 0 0 0-64.793 92.008v101.058c15.384-71.613 51.379-135.569 101.473-185.357zM111.87 571.721v141.586c26.275 50.135 62.128 94.457 105.129 130.542h133.987C230.812 801.144 139.084 698.413 111.87 571.721z" fill="#FEB133" /><path d="M604.972 197.042l-46.398-46.723c-25.795-25.976-67.614-25.976-93.407 0l-9.654 9.721c0.57-0.003 1.137-0.022 1.708-0.022 53.44 0 103.743 13.408 147.751 37.024zM847.584 493.222c0-94.818-35.475-181.349-93.874-247.049l-39.594 11.739a65.547 65.547 0 0 1-27.626 2.081c51.91 55.858 83.672 130.697 83.672 212.966 0 172.832-140.108 312.94-312.94 312.94s-312.94-140.108-312.94-312.94c0-92.64 40.267-175.864 104.239-233.163l-35.178-10.429c-50.095 49.789-86.09 113.745-101.473 185.357v156.999c27.214 126.692 118.942 229.423 239.116 272.128h249.179c144.179-51.237 247.419-188.875 247.419-350.629z" fill="#FEB633" /><path d="M144.282 472.958c0 172.832 140.108 312.94 312.94 312.94s312.94-140.108 312.94-312.94c0-82.269-31.762-157.108-83.672-212.966a65.847 65.847 0 0 1-37.729-18.855l-43.788-44.096c-44.008-23.615-94.311-37.023-147.75-37.023-0.571 0-1.138 0.019-1.708 0.022l-39.544 39.822a256.808 256.808 0 0 1 22.898-1.039c140.209 0 253.871 113.662 253.871 253.871S579.076 706.565 438.867 706.565 184.996 592.903 184.996 452.694c0-82.425 39.292-155.662 100.154-202.039l-36.63-10.86c-63.971 57.299-104.238 140.523-104.238 233.163z" fill="#FFBC34" /><path d="M184.996 452.694c0 140.209 113.662 253.871 253.871 253.871s253.871-113.662 253.871-253.871-113.662-253.871-253.871-253.871c-7.72 0-15.353 0.365-22.898 1.039l-40.987 41.275a66.355 66.355 0 0 1-2.631 2.495c15.404-3.918 31.538-6.005 48.161-6.005 107.586 0 194.802 87.216 194.802 194.802S528.1 627.232 420.513 627.232 225.711 540.016 225.711 432.43c0-74.37 41.681-138.998 102.952-171.82a65.561 65.561 0 0 1-19.035-2.698l-24.477-7.257c-60.863 46.377-100.155 119.614-100.155 202.039z" fill="#FFC134" /><path d="M225.711 432.43c0 107.586 87.216 194.802 194.802 194.802s194.802-87.216 194.802-194.802S528.1 237.628 420.513 237.628a195.188 195.188 0 0 0-48.161 6.005 65.795 65.795 0 0 1-43.689 16.977c-61.271 32.822-102.952 97.45-102.952 171.82z m176.448-155.998c74.964 0 135.734 60.77 135.734 135.734S477.123 547.9 402.159 547.9s-135.734-60.77-135.734-135.734 60.771-135.734 135.734-135.734z" fill="#FFC634" /><path d="M402.159 412.166m-135.734 0a135.734 135.734 0 1 0 271.468 0 135.734 135.734 0 1 0-271.468 0Z" fill="#FFCB34" /><path d="M511.87 148.837c12.81 0 24.861 5.031 33.932 14.165l90.186 90.819c15.88 15.992 37.005 24.798 59.483 24.798a83.602 83.602 0 0 0 23.761-3.45l113.054-33.518c4.494-1.332 9.089-2.008 13.658-2.008 26.427 0 47.926 21.783 47.926 48.557v489.137c0 26.749-21.553 48.511-48.045 48.511H177.919c-26.494 0-48.049-21.762-48.049-48.511V288.2c0-13.181 5.112-25.483 14.395-34.64 9.099-8.976 21.007-13.919 33.531-13.917 4.572 0.001 9.168 0.676 13.659 2.008l113.059 33.519a83.571 83.571 0 0 0 23.758 3.45c22.475 0 43.6-8.806 59.483-24.799l90.185-90.819c9.07-9.135 21.12-14.165 33.93-14.165m0-18c-16.903 0-33.806 6.494-46.703 19.482l-90.184 90.819c-12.567 12.653-29.442 19.482-46.711 19.482a65.572 65.572 0 0 1-18.644-2.708l-113.057-33.518a65.985 65.985 0 0 0-18.773-2.75c-35.226-0.003-65.927 28.759-65.927 66.557v489.137c0 36.734 29.57 66.511 66.049 66.511h667.906c36.475 0 66.045-29.777 66.045-66.511V288.2c0-37.795-30.702-66.557-65.926-66.557-6.167 0-12.471 0.881-18.774 2.75l-113.054 33.518a65.572 65.572 0 0 1-18.644 2.708c-17.271 0-34.145-6.828-46.711-19.482l-90.186-90.819c-12.899-12.987-29.803-19.481-46.706-19.481z" fill="#FFA820" /><path d="M585.301 373.906H438.442c-16.753 0-32.823 7.077-44.67 19.67L292.602 501.14c-9.41 10.005-9.41 26.23 0 36.237l196.687 209.115c12.473 13.261 32.69 13.261 45.16 0l196.687-209.115c9.414-10.007 9.414-26.231 0-36.237l-101.17-107.565c-11.844-12.593-27.914-19.669-44.665-19.669z" fill="#FFE3B4" /><path d="M172.303 386.606c-9.941 0-18-8.059-18-18v-46.524c0-15.617 7.112-30.018 19.513-39.51 12.402-9.492 28.16-12.597 43.235-8.521l26.401 7.141c9.596 2.595 15.271 12.479 12.676 22.075-2.595 9.596-12.478 15.271-22.075 12.676l-26.401-7.141a13.667 13.667 0 0 0-11.954 2.356 13.656 13.656 0 0 0-5.395 10.924v46.524c0 9.941-8.059 18-18 18zM172.303 456.211c-9.941 0-18-8.059-18-18v-10.545c0-9.941 8.059-18 18-18s18 8.059 18 18v10.545c0 9.941-8.059 18-18 18z" fill="#FFFFFF" /></svg>